<?xml version="1.0" ?><!DOCTYPE svg  PUBLIC '-//W3C//DTD SVG 1.1//EN'  'http://www.w3.org/Graphics/SVG/1.1/DTD/svg11.dtd'><svg height="8.4666mm" style="shape-rendering:geometricPrecision; text-rendering:geometricPrecision; image-rendering:optimizeQuality; fill-rule:evenodd; clip-rule:evenodd" version="1.1" viewBox="0 0 846.66 846.66" width="8.4666mm" xml:space="preserve" xmlns="http://www.w3.org/2000/svg" xmlns:xlink="http://www.w3.org/1999/xlink"><defs><style type="text/css">
   <![CDATA[
    .fil0 {fill:black;fill-rule:nonzero}
   ]]>
  </style></defs><g id="Layer_x0020_1"><path class="fil0" d="M86.29 84.81l64.11 0 0 -54.03c0,-11.4 9.25,-20.64 20.65,-20.64l589.32 0c11.41,0 20.65,9.24 20.65,20.64l0 710.42c0,11.4 -9.24,20.65 -20.65,20.65l-64.11 0 0 54.03c0,11.4 -9.25,20.64 -20.65,20.64l-589.32 0c-11.41,0 -20.65,-9.24 -20.65,-20.64l0 -710.42c0,-11.4 9.24,-20.65 20.65,-20.65zm105.41 0l483.91 0c11.4,0 20.65,9.25 20.65,20.65l0 615.09 43.47 0 0 -669.12 -548.03 0 0 33.38zm-11.57 671.48c-27.15,0 -27.15,-41.29 0,-41.29l401.63 0c27.16,0 27.16,41.29 0,41.29l-401.63 0zm0 -78.71c-27.15,0 -27.15,-41.29 0,-41.29l401.63 0c27.16,0 27.16,41.29 0,41.29l-401.63 0zm0 -78.71c-27.15,0 -27.15,-41.29 0,-41.29l401.63 0c27.16,0 27.16,41.29 0,41.29l-401.63 0zm200.82 -433.83c54.59,0 98.85,44.26 98.85,98.85 0,20.34 -6.14,39.25 -16.68,54.96 22.43,22.06 35.35,52.25 35.35,83.79l0 96.88c0,11.4 -9.24,20.64 -20.64,20.64l-193.75 0c-11.4,0 -20.65,-9.24 -20.65,-20.64l0 -96.88c0,-31.54 12.92,-61.73 35.35,-83.79 -10.53,-15.71 -16.68,-34.62 -16.68,-54.96 0,-54.59 44.26,-98.85 98.85,-98.85zm52.61 182.55c-15.24,9.59 -33.28,15.15 -52.61,15.15 -19.33,0 -37.37,-5.55 -52.61,-15.15 -15.17,14.45 -23.62,34.05 -23.62,55.05l0 76.23 152.46 0 0 -76.23c0,-21.01 -8.45,-40.59 -23.62,-55.05zm-52.61 -141.26c-31.79,0 -57.56,25.77 -57.56,57.56 0,31.79 25.77,57.56 57.56,57.56 31.79,0 57.56,-25.77 57.56,-57.56 0,-31.79 -25.77,-57.56 -57.56,-57.56zm274.01 -80.23l-548.03 0 0 669.13 548.03 0 0 -669.13z"/></g></svg>